# xmcd CD database file
# Copyright (C) 1993-1998 Ti Kan
# 
# Track frame offsets:
#     150
#     25782
#     56850
#     84475
#     118772
#     146092
# 
# Disc length: 2285 seconds
# 
# Revision: 1
# Processed by: cddbd v1.4b41PL1 Copyright (c) Steve Scherf et al.
# Submitted via: DiscPlay 4.0.4
# 
DISCID=5008eb06
DTITLE=McCoy Tyner - Tender Moments
DYEAR=1900
DGENRE=
TTITLE0=Mode To John
TTITLE1=Man From Tanganyika
TTITLE2=The High Priest
TTITLE3=Utopia
TTITLE4=All My Yesterdays
TTITLE5=Lee Plus Three
EXTD=
EXTT0=
EXTT1=
EXTT2=
EXTT3=
EXTT4=
EXTT5=
PLAYORDER=
